<svg xmlns="http://www.w3.org/2000/svg" xmlns:xlink="http://www.w3.org/1999/xlink" width="600" height="270" viewBox="0 0 600 270">
    <defs>
        <path id="a" d="M.381.576l.04-.019-.04.019zm.07-.035zM.525.504z"/>
    </defs>
    <g fill="none" fill-rule="evenodd">
        <path fill="#FFFFFE" d="M39.721 145.341h142.16V61.718H39.722z"/>
        <path fill="#DEE2E9" d="M39.721 80.533h142.16V61.718H39.722z"/>
        <path fill="#FF9762" d="M45.16 131.753h128.28c-.207 0 .325-30.393-.073-33.45-4.662 2.445-8.216 7.126-13.163 9.567-3.978 1.962-8.79 3.16-13.24 2.413-4.172-.701-7.57-3.84-11.854-4.127-5.566-.373-9.335 4.15-13.31 7.255-5.581 4.357-12.658 9.642-19.848 10.736-4.638.704-8.381-1.366-11.263-4.848-3.735-4.51-5.643-8.608-11.974-9.476-4.893-.67-10.491.568-14.42 3.622-4.853 3.773-7.749 9.974-13.32 12.576-1.976.924-1.594 1.295-3.765 1.118-1.42-.116-.502-2.041-1.76-.942-.924.806-.29 4.32-.29 5.556"/>
        <path fill="#FFFFFE" d="M385.714 44.993h97.213V14.679h-97.213z"/>
        <path fill="#FF9762" d="M389.895 41.857h22.997V18.861h-22.997z"/>
        <path fill="#E8E8E8" d="M419.164 25.042H477.7V20.86h-58.536zM419.164 32.359H477.7v-4.181h-58.536zM419.164 39.676h22.996v-4.181h-22.996z"/>
        <path fill="#FFFFFE" d="M380.488 132.798H497.56V49.174H380.488z"/>
        <path fill="#DDE0E5" d="M380.488 58.582H497.56v-9.408H380.488z"/>
        <path fill="#FFFFFE" d="M386.76 55.446h5.226v-4.181h-5.226z"/>
        <path fill="#F5F5F6" d="M388.85 85.76h22.997V62.763H388.85zM420.21 85.76h22.996V62.763h-22.997zM450.523 85.76h37.63V62.763h-37.63zM388.85 95.167h44.948v-4.18H388.85zM387.805 104.575h100.348v-2.09H387.805zM387.805 111.892h100.348v-2.09H387.805zM388.85 119.21H489.2v-2.092H388.85zM388.85 126.526h50.174v-2.09H388.85z"/>
        <path fill="#FFFFFE" d="M143.206 135.934h248.78V.045h-248.78z"/>
        <path fill="#FF9762" d="M189.199 112.937h22.996V81.578H189.2zM220.557 112.937h22.997V56.491h-22.997zM250.871 112.937h22.997V44.993H250.87zM282.23 112.937h22.996V63.808H282.23zM312.544 112.937h22.996V40.812h-22.996z"/>
        <path fill="#141728" d="M170.383 123.39h.797V24.087h-.797z"/>
        <path fill="#141728" d="M162.02 113.736h178.747v-.799H162.02zM182.595 106.666h-11.166v-.647h10.853l17.582-22.027 14.81 7.59L255.64 56.12l21.576 24.89 55.821-45.426.412.501-56.313 45.824-21.563-24.874-40.805 35.323-14.728-7.548-17.445 21.855"/>
        <path fill="#DDE0E5" d="M143.206 11.544h248.78V.045h-248.78z"/>
        <path fill="#141728" d="M334.42 38.721l-.781-.017.059-2.328-2.34-.054.02-.737 3.117.072-.076 3.064"/>
        <path fill="#FFFFFE" d="M39.721 56.491h98.258V13.634H39.721z"/>
        <path fill="#EDEDED" d="M49.129 52.31h3.136v-8.362h-3.136zM54.355 51.265h3.136v-15.68h-3.136zM59.582 51.265h3.136v-15.68h-3.136zM65.854 51.265h3.136V26.178h-3.136zM71.08 51.265h3.136V30.359H71.08z"/>
        <path fill="#FF9762" d="M77.352 51.265h3.136v-7.317h-3.136z"/>
        <path fill="#EDEDED" d="M82.578 51.265h3.136V30.359h-3.136zM87.805 51.265h3.136v-9.408h-3.136zM94.077 51.265h3.136v-15.68h-3.136zM99.303 51.265h3.136V29.314h-3.136z"/>
        <path fill="#F2F2F5" d="M111.847 24.087h20.906v-3.136h-20.906zM111.847 32.293h20.906v-1.934h-20.906zM111.847 35.429h20.906v-1.934h-20.906zM111.847 39.61h20.906v-1.934h-20.906zM111.847 43.789H122.3v-1.932h-10.453z"/>
        <path fill="#EDEEF2" d="M112.892 264.505a120.725 120.725 0 0 1-5.442-2.237 200.546 200.546 0 0 1-18.955-12.426l2.153-3.42c3.45 3.05 7.008 5.983 10.662 8.853 1.002.796 2.012 1.578 3.032 2.348a371.275 371.275 0 0 0 4.516 3.398l.05-.086a150.277 150.277 0 0 1-4.566-3.312 298.074 298.074 0 0 1-3.032-2.348 160.343 160.343 0 0 1-10.491-9.124l5.714-9.071 10.3 15.855c2.02 3.954 4.064 7.82 6.059 11.57m-33.659-21.942a199.292 199.292 0 0 1-14.893-13.772c-12.414-12.716-23.539-28.213-24.582-45.876-.22-3.76.488-8.275 3.926-9.873a5.588 5.588 0 0 1 2.384-.523c3.052 0 6.16 2.314 8.458 4.627 8.823 8.879 15.696 19.439 22.503 29.916l11.639 17.914-3.35 6.248c-1.085-4.438-2.924-8.762-5.733-12.16a.371.371 0 0 0-.292-.152c-.29 0-.561.372-.418.686 2.208 4.854 4.09 9.226 5.087 14.15l-1.875 3.496c-8.107-8.886-15.342-18.638-21.575-28.882v-.007c.667-5.183.482-11.412-1.671-16.264-.08-.177-.21-.248-.348-.248-.27 0-.562.275-.516.59.677 4.73 1.36 8.968 1.148 13.613a192.73 192.73 0 0 1-11.548-22.936c-.144-.343-.404-.484-.678-.484-.59 0-1.235.654-.922 1.384a187.502 187.502 0 0 0 9.311 18.671c-3.912-1.19-7.452-3.057-10.542-5.792a.523.523 0 0 0-.353-.14c-.42 0-.79.522-.396.88 3.443 3.129 7.545 5.424 12.106 6.465 4.671 8.02 9.949 15.69 15.812 22.942a149.253 149.253 0 0 0 9.785 10.93l-2.467 4.597m-11.707-13.69c-.138 0-.255.188-.13.299 2.698 2.382 6.09 3.937 9.52 4.986a.45.45 0 0 0 .12.019c.394 0 .53-.642.089-.768-3.47-.981-6.478-2.63-9.515-4.51a.15.15 0 0 0-.084-.026m-.488-24.16a.223.223 0 0 0-.199.318c2.362 5.31 3.698 10.803 3.532 16.625-.012.404.307.607.625.607.312 0 .626-.197.627-.592.033-5.981-1.284-11.71-4.408-16.85-.047-.075-.112-.107-.177-.107m-13.617 7.011l-.166.165c3.367 3.5 8.288 7.783 13.107 9.012.029.007.056.01.082.01.257 0 .347-.346.128-.508-1.98-1.444-4.37-2.365-6.454-3.69-2.351-1.498-4.549-3.22-6.697-4.989"/>
        <path fill="#E5E5E9" d="M108.661 261.37a369.7 369.7 0 0 1-4.495-3.4 149.605 149.605 0 0 0 4.545 3.313l-.05.086m-4.495-3.399c-1.015-.769-2.02-1.551-3.018-2.348 1 .788 2.005 1.57 3.018 2.348m-3.018-2.348a237.462 237.462 0 0 1-10.612-8.852l.17-.272a159.815 159.815 0 0 0 10.442 9.124M81.63 238.313a149.023 149.023 0 0 1-9.74-10.93 182.789 182.789 0 0 1-15.737-22.942c.082.018.164.035.244.054.048.01.094.015.138.015.605 0 .824-.927.164-1.1a35.518 35.518 0 0 1-1.357-.382 187.863 187.863 0 0 1-9.267-18.672c-.312-.73.33-1.384.917-1.384.273 0 .532.141.675.484a193.094 193.094 0 0 0 11.494 22.937c-.034.75-.092 1.513-.176 2.289-.054.5.305.75.696.75.383 0 .794-.243.86-.723 6.204 10.244 13.405 19.997 21.474 28.883l-.385.721"/>
        <path fill="#E5E5E9" d="M56.906 203.878a.713.713 0 0 1-.142-.015l-.252-.054c-4.686-1.027-8.9-3.292-12.437-6.38-.405-.354-.025-.868.406-.868a.55.55 0 0 1 .363.137c3.174 2.7 6.811 4.543 10.83 5.717.463.134.93.26 1.401.377.681.171.456 1.086-.169 1.086M66.644 221.648a.362.362 0 0 1-.083-.01c-4.871-1.26-9.846-5.646-13.25-9.229l.167-.169c2.172 1.812 4.393 3.575 6.771 5.108 2.106 1.358 4.523 2.3 6.525 3.78.222.165.13.52-.13.52M76.974 234.192a.49.49 0 0 1-.125-.019c-3.564-1.034-7.09-2.566-9.895-4.913-.13-.11-.009-.295.136-.295.028 0 .057.007.087.025 3.156 1.854 6.283 3.478 9.89 4.445.459.124.316.757-.093.757M59.314 210.15c-.427 0-.82-.257-.76-.774.09-.8.154-1.585.192-2.358.23-4.787-.513-9.155-1.25-14.03-.05-.325.269-.608.562-.608.15 0 .292.073.378.255 2.343 5 2.545 11.42 1.82 16.762v.007c-.073.496-.523.746-.942.746M71.443 222.693c-.346 0-.693-.206-.68-.615.18-5.895-1.272-11.456-3.84-16.833-.083-.172.065-.322.216-.322.07 0 .141.033.191.109 3.398 5.205 4.83 11.005 4.795 17.061-.002.401-.343.6-.682.6M83.358 234.192c-.965-4.858-2.786-9.17-4.922-13.958-.14-.31.124-.677.404-.677.098 0 .197.044.282.15 2.718 3.352 4.498 7.617 5.547 11.995l-1.311 2.49"/>
        <path fill="#EDEEF2" d="M97.868 269.732c-6.977 0-14.086-1.107-20.94-2.435-21.784-4.224-44.787-11.52-57.963-29.336-1.665-2.25-3.152-5.378-1.562-7.68.51-.738 1.273-1.263 2.053-1.712 3.338-1.925 7.165-2.74 11.04-2.74 2.552 0 5.125.355 7.587.977 6.2 1.569 11.874 4.691 17.47 7.783l22.02 12.168-.907 1.7 10.413 4.694.53-.849 15.508 8.567c1.372.758 2.943 1.513 4.503 2.21 1.961.874 3.91 1.659 5.436 2.25l.166.314 2.332.625.474.169c-5.768 2.407-11.912 3.295-18.16 3.295m-13.434-9.344c6.057 2.209 12.106 4.437 18.14 6.713a.965.965 0 0 0 .338.065c.9 0 1.362-1.412.366-1.759-9.08-3.167-18.124-6.435-27.163-9.718-.799-1.497-2.132-2.694-3.208-4.007-1.516-1.845-2.915-3.797-4.37-5.692a.43.43 0 0 0-.348-.18c-.338 0-.664.394-.4.747 1.431 1.906 2.957 3.773 4.307 5.738.563.818 1.07 1.703 1.64 2.529-3.799-1.38-7.597-2.763-11.395-4.139l-2.016-.732a.25.25 0 0 0 .009-.278c-2.235-3.45-5.658-6.435-8.418-9.491l-.156.118c2.555 3.063 4.96 6.733 7.929 9.42-5.578-2.031-11.139-4.104-16.583-6.424-.585-1.702-1.543-3.35-2.325-4.888a76.803 76.803 0 0 0-3.944-6.86.38.38 0 0 0-.321-.19c-.308 0-.62.383-.395.733 1.574 2.472 3.026 5.01 4.229 7.685.405.903.736 1.859 1.092 2.801-6.07-2.658-11.984-5.656-17.6-9.282a.547.547 0 0 0-.295-.09c-.457 0-.816.614-.346.926 5.513 3.678 11.327 6.775 17.311 9.522-4.268-.391-8.607-.36-12.883-.413h-.005c-.315 0-.397.45-.065.502 4.643.715 9.349 1.545 14.048 1.787.02.002.038.002.055.002a.892.892 0 0 0 .839-.55c.183.333.383.656.605.965a.261.261 0 0 0 .218.118c.159 0 .32-.144.306-.33a7.403 7.403 0 0 0-.082-.722c5.408 2.363 10.934 4.475 16.486 6.505l.755.276c-1.672.068-3.349.263-4.991.38-3.232.235-6.462.467-9.694.7-.703.05-.567 1.085.11 1.085h.02l9.169-.285c2.934-.09 6.019.058 8.891-.603 5.339 1.943 10.682 3.876 16.02 5.815-1.367.045-2.755.278-3.851.487-2.53.481-4.962 1.3-7.051 2.812-.293.211-.07.585.226.585a.381.381 0 0 0 .097-.012c2.57-.713 5.071-1.524 7.737-1.816.448-.05.905-.067 1.362-.067.47 0 .943.017 1.415.036.472.017.944.034 1.411.034.83 0 1.648-.055 2.432-.263a.462.462 0 0 0 .342-.295"/>
        <path fill="#E5E5E9" d="M102.562 266.596a.97.97 0 0 1-.337-.064 1766.152 1766.152 0 0 0-18.056-6.612c.1-.281-.063-.665-.333-.813-.912-.5-2.094-.672-3.319-.672-.15 0-.3.002-.45.007-5.313-1.91-10.632-3.814-15.946-5.728.077-.017.154-.035.23-.054.564-.138.67-.975.01-1.066-.844-.118-1.7-.163-2.557-.163-.39 0-.78.008-1.172.025l-.751-.272c-5.527-2-11.028-4.08-16.411-6.407a10.08 10.08 0 0 0-.44-1.69c5.42 2.285 10.955 4.326 16.507 6.328l.315.275a.208.208 0 0 0 .138.056.225.225 0 0 0 .18-.104l2.006.721c3.781 1.355 7.562 2.717 11.343 4.076.622.897 1.318 1.724 2.248 2.323a.404.404 0 0 0 .222.067.369.369 0 0 0 .347-.493 6.138 6.138 0 0 0-.448-1.044c8.998 3.234 18 6.452 27.038 9.572.992.341.532 1.732-.364 1.732m-60.702-23.01a57.235 57.235 0 0 0-1.412-.148c-5.957-2.706-11.744-5.756-17.231-9.379-.469-.307-.111-.913.344-.913.095 0 .195.027.294.09 5.59 3.571 11.476 6.524 17.518 9.143.155.406.315.81.487 1.207"/>
        <path fill="#E5E5E9" d="M41.002 244.645c-.016 0-.034 0-.053-.002-4.538-.221-9.082-.978-13.565-1.631-.321-.047-.242-.458.062-.458h.005c4.129.048 8.319.02 12.441.377a58.076 58.076 0 0 1 1.37.137c.168.368.348.728.55 1.075a.863.863 0 0 1-.81.502M45.508 253.007c-.657 0-.79-.987-.107-1.036l9.424-.667c1.597-.112 3.227-.298 4.852-.363.382-.016.763-.025 1.144-.025.838 0 1.673.044 2.498.158.644.088.54.9-.01 1.034l-.224.052c-2.793.63-5.792.488-8.644.575-2.97.091-5.941.18-8.913.272h-.02M69.34 262.415c-.286 0-.5-.402-.218-.63 2.012-1.623 4.357-2.504 6.793-3.021 1.056-.224 2.393-.476 3.71-.523.145-.006.29-.008.436-.008 1.185 0 2.329.188 3.212.734.26.162.419.58.322.886a.465.465 0 0 1-.33.318c-.755.224-1.543.282-2.342.282-.45 0-.905-.018-1.36-.036-.455-.02-.91-.039-1.363-.039-.44 0-.88.019-1.313.072-2.568.313-4.978 1.185-7.454 1.952a.332.332 0 0 1-.094.013"/>
        <path fill="#E5E5E9" d="M42.561 245.69a.25.25 0 0 1-.21-.117 9.407 9.407 0 0 1-.584-.96 14.241 14.241 0 0 1-.55-1.173 29.913 29.913 0 0 1-.471-1.22c-.343-.938-.662-1.889-1.053-2.788-1.16-2.662-2.561-5.187-4.08-7.647-.216-.349.085-.73.382-.73.112 0 .226.057.31.19a77.087 77.087 0 0 1 3.804 6.826c.754 1.531 1.678 3.17 2.242 4.865.189.564.337 1.135.426 1.707.038.24.065.48.08.719a.308.308 0 0 1-.296.328M59.36 248.826a.204.204 0 0 1-.135-.054 23.827 23.827 0 0 1-.307-.267c-2.882-2.56-5.218-6.057-7.698-8.975l.15-.112c2.68 2.912 6.005 5.755 8.174 9.042a.234.234 0 0 1-.008.265.22.22 0 0 1-.176.1M74.914 257.188c-.07 0-.14-.02-.21-.068-.878-.611-1.536-1.456-2.123-2.37-.536-.83-1.012-1.72-1.541-2.541-1.27-1.975-2.705-3.853-4.05-5.768-.25-.355.058-.751.375-.751.118 0 .237.053.328.182 1.368 1.904 2.684 3.866 4.11 5.72 1.011 1.32 2.265 2.523 3.016 4.028.17.338.312.691.423 1.065.08.275-.106.503-.328.503"/>
        <path fill="#EDEEF2" d="M114.983 265.55l-.365-.097-2.303-.624-.164-.314a785.105 785.105 0 0 1-5.975-11.626c-2.995-5.98-5.94-12.166-8.591-18.47l2.323-3.756.212.388c.896 1.661 1.66 3.463 2.835 4.937.06.075.133.107.206.107.166 0 .32-.172.26-.373-.596-2.043-1.807-3.982-2.753-5.891l-.11-.222 1.88-3.04c2.451 10.171 5.181 20.26 8.575 30.114.03.087.093.123.16.123.119 0 .245-.115.198-.266-3.154-10.243-5.853-20.583-8.308-30.983l4.54-7.346 1.707-4.234c3.085 16.968 4.392 34.338 5.673 51.574m-6.857-44.477c-.102 0-.21.063-.228.18-.406 2.39-.68 4.767-.912 7.181-.208 2.14-.698 4.424-.406 6.561.034.248.279.408.505.408a.383.383 0 0 0 .384-.285c.655-2.187.52-4.66.655-6.931.137-2.322.22-4.604.194-6.931-.001-.123-.094-.183-.192-.183m-16.467-2.735c-3.252-10.491-5.212-21.118-4.859-31.521.1-2.941.558-6.244 2.89-8.006.977-.739 2.143-1.066 3.342-1.066 1.94 0 3.967.858 5.414 2.216l.083.08-.863 21.065c-.892-4.25-1.77-8.504-2.649-12.762-.07-.345-.355-.502-.63-.502-.334 0-.654.234-.557.645 1.179 5.077 2.309 10.18 3.436 15.29-.637-1.29-1.67-2.396-2.538-3.529l-3.473-4.533a.553.553 0 0 0-.446-.235c-.43 0-.843.507-.507.964 1.125 1.535 2.252 3.069 3.379 4.604.985 1.341 1.855 2.866 3.203 3.856.08.06.164.085.248.085a.44.44 0 0 0 .358-.194l.02.093-.104 2.537-2.016 3.827a78.301 78.301 0 0 0-1.915-2.215.3.3 0 0 0-.225-.109.294.294 0 0 0-.236.462c.587.964 1.167 1.995 1.758 3.035l-3.113 5.913"/>
        <path fill="#E5E5E9" d="M111.637 257.188c-.069 0-.132-.036-.163-.123-3.432-9.857-6.194-19.95-8.673-30.125l.632-1.013c2.483 10.404 5.213 20.748 8.403 30.995.048.152-.08.266-.2.266m-13.819-51.937l-.02-.093.025-.043-.005.136m.02-.496a6.782 6.782 0 0 0-.267-.616 1393.817 1393.817 0 0 0-3.476-15.295c-.097-.412.226-.645.564-.645.279 0 .566.157.637.501.889 4.26 1.777 8.517 2.68 12.768l-.137 3.287M96.816 204.923a.405.405 0 0 1-.247-.084c-1.342-.979-2.208-2.488-3.188-3.814-1.122-1.52-2.243-3.037-3.363-4.556-.334-.452.076-.953.505-.953.158 0 .317.069.443.233 1.152 1.493 2.306 2.989 3.457 4.484.864 1.12 1.892 2.214 2.526 3.49.097.2.186.402.264.61l-.016.356-.025.042a.439.439 0 0 1-.356.192M94.59 212.24c-.51-.933-1.008-1.857-1.514-2.72-.123-.21.03-.415.204-.415.065 0 .134.029.193.097a69.482 69.482 0 0 1 1.649 1.986l-.532 1.052M103.242 236.282c-.065 0-.13-.031-.184-.104-1.044-1.425-1.724-3.167-2.52-4.774-.062-.123-.125-.249-.19-.374l.579-1.02.097.215c.842 1.846 1.919 3.721 2.449 5.696.052.195-.084.361-.231.361M107.3 236.282c-.259 0-.538-.164-.576-.416-.334-2.183.225-4.516.462-6.7.266-2.466.578-4.892 1.04-7.335.021-.118.144-.183.26-.183.112 0 .218.061.22.186.029 2.377-.066 4.708-.222 7.079-.154 2.319 0 4.845-.747 7.078-.07.204-.249.291-.438.291"/>
        <path fill="#EDEEF2" d="M510.714 268.686h-61.237c1.99-17.072 4.625-29.75 17.058-41.999 2.45-2.413 5.229-4.523 7.97-6.656h17.635c1.587 8.42 1.108 16.669-2.355 24.956-.097.232-.077.43.015.586a118.213 118.213 0 0 0-5.167 13.548c-.28.9.563 1.598 1.357 1.598.408 0 .803-.186 1.026-.623 2.874-5.657 5.599-11.314 8.397-16.92 7.32-5.815 14.163-8.322 22.93-8.322 2.109 0 4.328.146 6.692.424a.253.253 0 0 0 .036.003c.3 0 .415-.48.133-.604-2.888-1.277-6.16-1.87-9.523-1.87-6.283 0-12.883 2.075-17.885 5.65 3.203-6.248 6.577-12.414 10.433-18.426h1.643a7.29 7.29 0 0 0-.296-2.061c.44-.663.885-1.325 1.334-1.983 2.636-1.48 5.233-2.9 8.33-3.643a28.026 28.026 0 0 1 6.557-.764c2.562 0 5.125.332 7.648.938a.192.192 0 0 0 .042.005c.158 0 .208-.234.04-.288-2.996-.976-6.44-1.532-9.922-1.532-3.555 0-7.145.58-10.33 1.877a218.186 218.186 0 0 1 9.019-11.845c3.017-1.446 5.318-3.532 8.655-4.561 2.268-.7 4.57-1.014 6.897-1.014 1.063 0 2.132.067 3.203.19.012.002.022.002.034.002.311 0 .37-.527.046-.58a28.44 28.44 0 0 0-4.443-.336c-3.743 0-7.876.677-11.118 2.382a220.33 220.33 0 0 1 16.537-17.315l-.044-.041c-7.904 6.863-15.745 14.454-23.053 22.63 1.464-5.057 1.044-10.878-2.32-14.451a.349.349 0 0 0-.26-.113c-.24 0-.482.226-.399.484 1.128 3.508 2.662 6.367 2.55 10.194-.063 2.098-.509 3.975-1.226 5.76a209.167 209.167 0 0 0-9.206 11.283c.932-5.072.42-10.539-1.268-15.071a.357.357 0 0 0-.344-.248c-.21 0-.413.168-.359.436 1.026 4.952 1.055 9.24.386 13.574a7.146 7.146 0 0 0-3.895-1.148h-20.02a26.982 26.982 0 0 0 2.018-2.58c5.601-8.17 6.047-19.555 13.738-25.927 8.258-6.84 21.5-4.965 30.002-11.517 6.063-4.674 8.288-12.511 12.642-18.722 6.066-8.649 16.803-13.931 27.556-13.931 1.762 0 3.523.142 5.265.432-12.391 2.926-21.134 16.159-18.686 28.287 1.565 7.759 7.012 14.844 6.342 22.722-1.331 15.647-24.89 22.343-26.707 37.944-.495 4.247.79 8.49.966 12.76.546 13.273-11.375 25.84-25.069 26.426m-16.623-31.772c1.18-5.594 1.186-11.33-.22-16.883h10.767c-3.87 5.455-7.422 11.093-10.547 16.883"/>
        <path fill="#E5E5E9" d="M486.429 260.324c-.794 0-1.637-.701-1.357-1.603a118.91 118.91 0 0 1 5.164-13.595c.136.23.429.362.731.362.332 0 .673-.16.833-.526a44.564 44.564 0 0 0 2.725-8.524c3.123-5.81 6.672-11.467 10.54-16.94h.587a95.923 95.923 0 0 1-.964 3.26c-.081.262.136.438.355.438a.36.36 0 0 0 .31-.164 20.279 20.279 0 0 0 1.842-3.535h1.459c-3.854 6.033-7.226 12.22-10.427 18.489-2.17 1.559-4.04 3.402-5.453 5.482-.362.532.138 1.037.656 1.037.17 0 .342-.054.487-.18a63.923 63.923 0 0 1 1.929-1.603c-2.796 5.624-5.52 11.3-8.392 16.976a1.107 1.107 0 0 1-1.025.626M510 217.429a7.245 7.245 0 0 0-.388-1.023c.578-.32 1.15-.645 1.72-.966-.448.66-.892 1.324-1.332 1.99m-1.266-2.45a5.226 5.226 0 0 0-.174-.212l.012-.068a209.71 209.71 0 0 1 9.2-11.321c-.706 1.757-1.671 3.426-2.793 5.127-.112.171.052.355.22.355.057 0 .115-.02.162-.069 1.824-1.831 3.242-4.44 4.064-7.294 7.304-8.204 15.14-15.82 23.04-22.707l.044.041a220.697 220.697 0 0 0-16.527 17.374c-1.656.875-3.08 2.02-4.099 3.48-.214.31.085.606.395.606a.447.447 0 0 0 .187-.04c.081-.037.163-.076.244-.116a218.84 218.84 0 0 0-9.012 11.885c-1.814.743-3.496 1.722-4.963 2.96"/>
        <path fill="#E5E5E9" d="M522.068 199.697c-.308 0-.606-.287-.393-.586 1.014-1.415 2.433-2.524 4.082-3.371 3.227-1.657 7.342-2.315 11.068-2.315 1.577 0 3.084.118 4.423.327.322.052.264.563-.046.563-.012 0-.022 0-.034-.002a28.621 28.621 0 0 0-3.188-.184c-2.316 0-4.609.306-6.866.985-3.322 1-5.612 3.027-8.616 4.432l-.244.113a.456.456 0 0 1-.186.038M509.93 216.422a7.236 7.236 0 0 0-.87-1.426c1.453-1.24 3.122-2.22 4.92-2.962 3.154-1.302 6.711-1.884 10.233-1.884 3.45 0 6.862.558 9.83 1.537.166.055.117.29-.04.29a.188.188 0 0 1-.042-.005c-2.499-.609-5.038-.942-7.576-.942-2.172 0-4.344.244-6.496.767-3.068.747-5.641 2.173-8.253 3.659-.566.32-1.133.645-1.706.966M493.122 244.645c-.524 0-1.028-.521-.663-1.068 1.426-2.14 3.314-4.038 5.506-5.642 5.048-3.692 11.707-5.834 18.047-5.834 3.394 0 6.695.612 9.609 1.93.285.13.168.625-.134.625a.25.25 0 0 1-.036-.003c-2.386-.288-4.625-.438-6.753-.438-8.846 0-15.75 2.589-23.138 8.594a64.835 64.835 0 0 0-1.948 1.65.732.732 0 0 1-.49.186M515.586 209.105c-.166 0-.33-.184-.219-.355 1.11-1.7 2.066-3.366 2.763-5.121.71-1.79 1.15-3.67 1.213-5.774.111-3.835-1.406-6.7-2.52-10.217-.083-.259.155-.485.393-.485.092 0 .185.035.257.113 3.326 3.582 3.742 9.416 2.294 14.484-.814 2.85-2.217 5.457-4.021 7.286a.221.221 0 0 1-.16.069M505.235 223.739c-.21 0-.418-.178-.34-.44.334-1.122.643-2.213.924-3.286h1.48a20.815 20.815 0 0 1-1.767 3.56.34.34 0 0 1-.297.166m3.372-8.49a7.089 7.089 0 0 0-1.508-1.392c.64-4.38.613-8.714-.37-13.72-.052-.27.144-.44.344-.44.134 0 .27.076.33.25 1.617 4.581 2.108 10.107 1.215 15.233l-.011.07"/>
        <path fill="#E5E5E9" d="M491.054 245.69c-.303 0-.595-.133-.731-.364-.092-.157-.112-.357-.015-.591 3.46-8.36 3.939-16.683 2.353-25.178h1.729c1.405 5.602 1.398 11.39.22 17.033a44.99 44.99 0 0 1-2.724 8.57c-.16.37-.501.53-.832.53"/>
        <path fill="#545C9A" d="M342.857 259.279h6.272v-9.408h-6.272z"/>
        <path fill="#FF8575" d="M350.356 257.188s.355 3.837 1.423 6.997c.14.41.486.731.486 1.163v3.338H337.63v-1.772c0-.816.275-1.603.78-2.259 1.245-1.621 4.948-4.972 4.367-7.467h7.578"/>
        <path fill="#141728" d="M350.174 257.188h.042l-.02.113-.022-.113M352.265 266.596v2.09H337.63v-1.54c0-.185.02-.368.057-.55h14.577M343.326 260.364h3.245c.258 0 .467-.243.467-.544 0-.299-.209-.541-.467-.541h-3.245c-.258 0-.469.242-.469.541 0 .301.211.544.47.544"/>
        <path fill="#141728" d="M343.325 261.411h3.244c.26 0 .47-.244.47-.543 0-.301-.21-.544-.47-.544h-3.244c-.259 0-.468.243-.468.544 0 .299.21.543.468.543"/>
        <path fill="#545C9A" d="M382.578 259.279h6.272v-9.408h-6.272z"/>
        <path fill="#404BF2" d="M372.209 179.216c-1.697 4.166-12.015 32.545-12.015 32.545l-9.3 43.337h-9.082l4.685-49.178 3.425-52.216 19.688 2.325 3.56 17.465-.961 5.722"/>
        <path fill="#404BF2" d="M391.986 163.323l-.563 43.736-2.142 48.039h-8.562l-3.45-38.3-8.28-45.098v-15.906l21.363 1.971 1.634 5.558"/>
        <path fill="#BDC4FF" d="M370.244 100.394h13.38V83.669H368.99c3.391 4.179 1.254 16.725 1.254 16.725"/>
        <path fill="#FFFFFE" d="M389.85 161.84c-.414 10.117-32.648-6.187-39.676-2.403l8.519-59.505s7.802-3.15 11.107-.688c4.555 3.392 12.776 0 12.776 0l5.737 2.313s1.894 51.637 1.538 60.283"/>
        <path fill="#141728" d="M370.992 89.94s2.308 39.228-16.75 64.064c0 0-5.822 14.66-10.534 15.38 0 0-4.919-12.714 1.089-22.757 3.69-6.17 10.816-19.685 11.237-26.895l1.214-20.692 13.744-9.1M383.204 89.94s-5.702 25.57-5.851 38.632c-.12 10.62 16.551 46.038 16.551 46.038s10.291-10.627 4.864-22.907c-3.578-8.095-7.57-14.496-7.061-19.814l-.135-36.543-8.368-5.405"/>
        <path fill="#BDC4FF" d="M364.838 80.336c.204-3.348 1.298-6.563 2.688-9.594a50.86 50.86 0 0 1 2.254-4.365c.294-.507.612-.937.816-1.484.229-.609.88-.978 1.526-1.062.648-.082 1.297.07 1.93.222 2.738.65 5.251 1.193 7.804 2.429.943.458 1.888.933 2.716 1.575a8.208 8.208 0 0 1 2.685 3.686c.895 2.483.54 5.228.02 7.815-.126.63-.265 1.27-.566 1.84-.598 1.129-1.747 1.845-2.857 2.483a89.118 89.118 0 0 1-4.444 2.383c-.885.44-1.782.871-2.732 1.144-1.689.487-3.477.466-5.233.42-1.366-.036-2.795-.101-3.979-.784-1.098-.634-1.862-1.748-2.256-2.952-.395-1.202-.448-2.493-.372-3.756"/>
        <path fill="#141728" d="M369.066 56.491c2.446 2.07 5.73 2.83 8.909 3.225 3.18.393 6.435.496 9.468 1.526 1.882.638 4.81 1.818 5.714 3.75 1.265 2.705 1.062 6.715.368 9.53-.523 2.13-1.529 4.154-2.956 5.822-1.569 1.83-3.5 2.722-5.617 3.767-.18.09-.358.18-.534.274-.159.086-.384.288-.556.323-.358.073-.437-.543-.435-.821.005-.55.218-1.072.492-1.54.259-.441.598-.724.912-1.117.879-1.096.825-2.434.935-3.756.054-.644.084-1.308-.122-1.92-.205-.612-.7-1.168-1.339-1.262-.672-.1-1.31.311-1.821.758a9.743 9.743 0 0 0-2.412 3.193l-.105-3.38c-.026-.778-.051-1.567-.291-2.307-.315-.972-1-1.922-.757-2.915.112-.454.413-.853.462-1.319.071-.674-.423-1.3-1.02-1.619-.6-.318-1.289-.4-1.957-.518-1.046-.185-2.03-.532-3.045-.811-.945-.261-1.903-.602-2.644-1.267-.768-.688-1.23-1.666-1.464-2.67-.234-1.007-.256-2.048-.26-3.08-.004-.63.003-1.243.075-1.866"/>
        <path fill="#BDC4FF" d="M407.535 118.164l7.012 17.78a6.185 6.185 0 0 1-.494 5.542l-22.292 27.897-3.956-5.836 14.296-22.236a6.548 6.548 0 0 0-.152-6.063l-6.924-11.975s8.399 3.07 12.51-5.11"/>
        <path fill="#BDC4FF" d="M388.262 164.157l-2.403.457-1.66 1.636c-.598.588-.648 1.576-.116 2.231l.494.605-.744 1.273a1.552 1.552 0 0 0 .1 1.707l2.32 3.048c.437.573 1.204.71 1.79.32l2.516-1.671c.555-.369.943-.97 1.068-1.656l.36-1.97-3.725-5.98"/>
        <path fill="#FF8575" d="M389.404 257.188s-.862 3.698 2.108 6.997c.29.323.474.731.474 1.163v3.338h-13.589v-1.772c0-.816.27-1.603.764-2.259 1.216-1.621 3.405-4.972 2.837-7.467h7.406"/>
        <path fill="#141728" d="M388.85 257.188h.042l-.02.113-.022-.113M391.986 266.596v2.09h-13.589v-1.54c0-.185.02-.368.056-.55h13.533M383.046 260.364h3.244c.258 0 .47-.243.47-.544 0-.299-.212-.541-.47-.541h-3.244c-.258 0-.468.242-.468.541 0 .301.21.544.468.544"/>
        <path fill="#141728" d="M383.048 261.411h3.242c.26 0 .47-.244.47-.543 0-.301-.21-.544-.47-.544h-3.242c-.26 0-.47.243-.47.544 0 .299.21.543.47.543M383.624 89.94l9.08 5.859 4.048 1.902a11.294 11.294 0 0 1 5.709 6.068l7.295 16.404c-7.882 1.511-8.208 8.548-13.826 7.236l-8.061-18.965-4.245-9.454v-9.05M371.08 89.94l-8.957 3.83-4.994 1.301a10.595 10.595 0 0 0-6.979 5.869l-8.338 16.515c5.345 0 10.9 7.135 11.76 5.759l10.244-17.902 7.264-15.371"/>
        <path fill="#DCDBD6" d="M367.944 87.85c-.474-.127-.938-.286-1.365-.545-1.163-.71-1.973-1.953-2.391-3.296-.458-1.476-.483-3.068-.365-4.61l.011-.027.904-.93a21.13 21.13 0 0 0-.248 2.205c-.072 1.265-.021 2.557.354 3.76.373 1.204 1.099 2.32 2.141 2.954.302.184.622.323.953.427l.006.062"/>
        <path fill="#4E5594" d="M368.417 87.85a4.618 4.618 0 0 1-.989-.422c-1.082-.628-1.836-1.732-2.223-2.923-.39-1.19-.442-2.468-.368-3.718.046-.734.132-1.462.258-2.181l.838-.825 2.878-1.303a1.413 1.413 0 0 1 1.978 1.081l.25 1.695c.09.603.03 1.217-.177 1.789l-.79 2.188c-.11.3-.319.551-.595.71a2.522 2.522 0 0 0-1.241 2.506l.18 1.403"/>
        <path fill="#BDC4FF" d="M342.657 118.072l19.703-31.31v-5.235c0-.655.268-1.283.741-1.742l2.22-2.153 2.615-1.167c.775-.346 1.669.137 1.794.969l.228 1.52a3.242 3.242 0 0 1-.161 1.6l-.717 1.96c-.1.27-.29.495-.54.636a2.248 2.248 0 0 0-1.128 2.246l.192 1.476 3.476.677-4.354 3.314-14.19 32.332c-1.253 2.86-4.65 4.13-7.505 2.806-3.033-1.406-4.143-5.116-2.374-7.929"/>
        <path fill="#141728" d="M438.819 183.96l-.007.004a.399.399 0 0 1-.55-.157l-12.774-23.213a.416.416 0 0 1 .154-.562l.007-.003a.4.4 0 0 1 .55.157l12.774 23.213c.108.199.04.45-.154.562"/>
        <path fill="#414354" d="M470.066 187.134l-31.77.02c-.753 0-1.362-.697-1.362-1.559s.609-1.558 1.36-1.558l31.772-.02c.752-.002 1.363.697 1.363 1.557 0 .861-.611 1.558-1.363 1.56"/>
        <path fill="#141728" d="M471.429 184.754c0-.285-.124-.534-.31-.737-.003.64-.568 1.16-1.265 1.16l-31.958.015a1.288 1.288 0 0 1-.962-.427v.18c0 .641.568 1.163 1.268 1.163l31.959-.016c.7-.001 1.268-.521 1.268-1.165v-.173"/>
        <path fill="#70707E" d="M462.02 185.203l-2.09.002v-1.185l2.09-.003v1.186M465.157 185.203l-2.09.002v-1.185l2.09-.003v1.186M443.206 185.2l-2.09.003-.001-1.183 2.09-.003v1.184"/>
        <path fill="#141728" d="M504.878 216.422v-.652c6.557 0 11.893-5.33 11.893-11.883V154.75h.65v49.138c0 6.912-5.626 12.535-12.543 12.535"/>
        <path fill="#404BF2" d="M510.105 219.557h-54.356c0-4.04 3.22-7.317 7.192-7.317h39.972c3.97 0 7.192 3.277 7.192 7.317M518.467 149.523v40.766c-3.463 0-6.272-2.765-6.272-6.18v-28.407c0-3.414 2.809-6.18 6.272-6.18"/>
        <path fill="#141728" d="M462.63 239.418l-.61-.053 1.484-19.808.607.054-1.481 19.807M508.37 268.686l-4.537-49.072.69-.057 4.536 49.073-.688.056"/>
        <path fill="#BDC4FF" d="M422.433 253.007l-5.228 3.427-8.595-.935-.944 4.587 19.355 6.51 2.596-11.173-7.184-2.416"/>
        <path fill="#141728" d="M409.807 256.174l-5.764-1.076-.873.478c-.5.274-.784.816-.723 1.377l.007.049a3.8 3.8 0 0 0 1.5 2.623l3.759 2.825 19.174 6.236 1.468-4.398a3.28 3.28 0 0 0 .172-.999l.044-2.537-.84 1.252-7.625.583c-2.089.16-4.19-.074-6.19-.688l-2.081-.64a4.401 4.401 0 0 1-2.123-1.43 2.61 2.61 0 0 1-.327-2.775l.422-.88"/>
        <path fill="#141728" d="M404.188 259.064a3.757 3.757 0 0 1-1.525-2.604l-.005-.048.01-.27c-.168.261-.256.565-.222.882l.007.049a3.76 3.76 0 0 0 1.526 2.605l3.825 2.81 19.513 6.198.21-.612-19.513-6.2-3.826-2.81"/>
        <path fill="#FF8575" d="M467.247 213.535l-17.561 5.494-19.29 37.114-10.187-2.19 16.783-38.305a41.345 41.345 0 0 1 17.613-16.915l5.74-.081 6.902 14.883"/>
        <path fill="#BDC4FF" d="M454.533 255.098l-3.918 4.948-8.455 1.869.51 4.68h20.396l-.962-11.497h-7.57"/>
        <path fill="#141728" d="M443.834 261.828l-5.843.787-.68.753a1.48 1.48 0 0 0-.25 1.59l.021.045a3.915 3.915 0 0 0 2.266 2.104l4.486 1.58h20.277v-4.808c0-.353-.05-.703-.153-1.04l-.766-2.515-.403 1.504-7.088 3.02a16.347 16.347 0 0 1-6.126 1.307l-2.187.037a4.355 4.355 0 0 1-2.481-.73 2.754 2.754 0 0 1-1.197-2.631l.124-1.003"/>
        <path fill="#141728" d="M439.34 266.668c-1.005-.316-1.826-.996-2.265-1.88l-.02-.041-.078-.242c-.073.278-.058.574.077.846l.02.04c.44.884 1.26 1.564 2.266 1.88l4.488 1.415h20.283v-.603h-20.283l-4.488-1.415"/>
        <g transform="translate(454.704 198.652)">
            <mask id="b" fill="#fff">
                <use xlink:href="#a"/>
            </mask>
            <path fill="#E9E7E3" d="M.381.576h.215V.468H.38z" mask="url(#b)"/>
        </g>
        <path fill="#BA3A2B" d="M444.533 228.965l-4.463-17.974a41.214 41.214 0 0 1 14.34-12.142l.044-.02a.193.193 0 0 1 .032-.017l.05-.025.028-.015c.027-.012.052-.026.077-.04l5.725-.08 6.881 14.831-3.716 1.163-4.857-.05h-.034c-1.62 0-2.934 1.133-3.29 2.606l-5.613 1.756-5.204 10.005"/>
        <path fill="#FF8575" d="M489.438 187.934l-5.684 5.775-33.185 3.513c-6.376.675-10.684 6.8-9.139 12.994l11.717 46.972h9.73l-5.626-37.794c-.31-2.084 1.325-3.953 3.443-3.932l33.293.327a15.349 15.349 0 0 0 10.914-4.45c3.713-3.675 4.971-9.156 3.646-14.197l-2.623-9.989-16.486.781"/>
        <path fill="#404BF2" d="M500.592 139.455c-1.842-5.59-4.113-11.105-7.52-15.905-.639-.901-1.325-1.783-2.185-2.476-.59-.474-1.25-.854-1.933-1.18-2.945-1.407-6.521-1.927-9.76-1.665-.484.04-.98.102-1.413.327-.307.161-.57.401-.804.66-1.834 2.05-1.895 6.464.256 8.34.306.266.65.487 1 .697 1.029.619 1.295.88 1.27 2.08-.027 1.24-.015 2.486.198 3.71.27 1.56.885 3.1 2 4.224.696.7 1.557 1.212 2.408 1.716.738.437 1.78.798 2.234 1.55.992 1.645.577 4.034 1.274 5.853.547 1.423 1.513 2.74 2.878 3.422.968.484 2.071.623 3.152.697 2.326.159 4.77.424 6.386-1.556a7.589 7.589 0 0 0 1.548-3.265c.489-2.412-.218-4.891-.99-7.229"/>
        <path fill="#BDC4FF" d="M491.29 143.25h8.362v-8.361h-8.363z"/>
        <path fill="#141728" d="M511.78 200.17s-5.245-18.621-5.331-20.307c-.228-3.438.04-4 .983-7.312l4.187-9.916c1.28-4.5.253-9.445-1.38-13.828l-4.012-10.783-6.84 2.64-8.34 1.81-2.563 8.254-7.346 13.191a2.365 2.365 0 0 0-.025 2.282c.795 1.452 2.387 3.177 2.947 4.152.977 5.483-4.27 23.22-4.27 23.22 9.587 2.523 27.685 14.506 31.99 6.596"/>
        <path fill="#BDC4FF" d="M479.973 121.637c-.074.434-.086.918-.128 1.482a19.705 19.705 0 0 0 2.324 10.822c.542.996 1.17 1.946 1.798 2.892.168.254.341.512.59.69.247.179.55.261.85.325 1.942.41 3.955.071 5.776-.658 1.175-.471 2.21-1.126 3.268-1.805.507-.325.474-.131.647-.774.319-1.192.6-2.396.899-3.593.522-2.083 1.044-4.165 1.564-6.25l-2.557-6.604-11.67.55a8.475 8.475 0 0 0-2.175 1.101c-.796.571-1.068 1.135-1.186 1.822M491.25 151.613s-1.765 15.556-2.075 22.693c-.092 2.17-1.97 3.843-4.175 3.745l-16.398-.732c-1.873.647-4.68-3.805-6.58-4.376-.864-.262-2.8-.085-3.709.019-.314.035-.594.189-.795.43l-.392.38a2.832 2.832 0 0 0-.837 1.631l-2.63 6.402.919-.061c.895-.315 1.388-.58 2.07-1.41l.696-2.26 1.368-.483 5.639 3.405s3.821 1.11 4.964 1.275c4.2.607 13.87 2.69 18.802 3.676 2.366.472 4.831-.101 6.689-1.618 1.495-1.22 2.797-2.836 2.816-4.543l4.12-27.527-10.491-.646"/>
        <path fill="#141728" d="M487.108 163.958l1.096-6.886c.376-3.459 2.163-5.812 4.3-8.595l9.668.998c.666 3.817.793 7.706.375 11.557l-.317 2.926s-12.662 2.8-15.122 0"/>
        <path fill="#4F5896" d="M485.017 120.267v-.013.013"/>
        <path fill="#404BF2" d="M509.009 138.136c.296-2.167 1.227-4.286.96-6.456-.375-3.05-2.983-5.326-4.018-8.22-.533-1.487-.633-3.092-1.001-4.63-.37-1.538-1.1-3.108-2.469-3.887-1.385-.788-3.096-.604-4.645-.97-2.142-.51-4.022-2.091-6.223-2.081-1.913.01-3.606 1.229-5.477 1.628-2.18.464-4.552-.191-6.616.652-.506.208-.99.51-1.319.95-.76 1.01-.542 2.45-.087 3.632 1.629 4.223 6.04 7.198 10.55 7.112l-.18-.117c.763.298 1.467.688 2.027 1.308 1.464 1.618 1.439 4.14 2.7 5.919 1.224 1.73 3.49 2.522 4.605 4.325 1.177 1.905.747 4.372 1.323 6.537.618 2.33 2.347 4.165 4.002 5.91.436.462.878.932 1.166 1.498.58 1.134.474 2.48.586 3.749.173 1.985.947 3.902 2.149 5.484.666.877 2.446 3.56 3.772 2.304.27-.254.421-.609.552-.955 3.073-8.169-3.471-15.526-2.357-23.692"/>
        <path fill="#545C9A" d="M461.772 178.79l-3.932 1.568.074.358c.174.851 1.09 1.385 1.986 1.159l4.211-1.064-2.34-2.02M272.822 255.826l-5.392 5.543-9.242-9.09 5.392-5.544 9.242 9.091M223.278 262.415l-6.902-2.263 3.551-12.372 6.902 2.265-3.55 12.37"/>
        <path fill="#141728" d="M236.237 219.557h-62.718c0-4.04 3.27-7.317 7.304-7.317h48.112c4.033 0 7.302 3.277 7.302 7.317M175.25 268.686l-.686-.056 4.54-49.073.687.057-4.54 49.072M233.46 268.686l-4.54-49.072.686-.057 4.54 49.073-.686.056"/>
        <path fill="#404BF2" d="M175.61 200.078l46.615 21.327 39.984 35.783 7.477-7.39-34.408-38.159-34.643-24.486-25.025 12.925"/>
        <path fill="#404BF2" d="M173.52 190.29v8.747c0 7.573 6.188 13.712 13.823 13.712h43.653c-7.839 9.394-12.328 39.684-12.328 39.684l9.83 2.665 17.359-44.069c3.126-8.133-2.931-16.851-11.708-16.851h-31.246l.225-3.889h-29.609"/>
        <path fill="#AFB0CD" d="M192.11 147.432l8.16 1.545a16.194 16.194 0 0 1 11.52 8.788l6.677 13.618-6.684 15.09-.68 6.782s-32.397 14.41-40.351 7.88l-.369-34.676 12.229-17.948 9.498-1.079"/>
        <path fill="#BDC4FF" d="M180.836 138.024s2.595 11.237 2.049 17.77h9.51s-.981-11.152.985-12.987l-12.544-4.783"/>
        <path fill="#BDC4FF" d="M196.501 128.401c-.12-2.14-.992-4.153-1.852-6.11l-.352.172c-2.082-2.031-5.284-2.662-8.067-1.89-2.786.774-5.135 2.827-6.617 5.344-2.107 3.581-2.51 8.158-1.026 12.046 1.485 3.891 4.838 7 8.795 8.11 1.58.444 3.423.53 4.71-.503.52-.418.902-.983 1.272-1.543.952-1.432 1.904-2.928 2.225-4.626.253-1.344.093-2.73.161-4.098.114-2.317.879-4.587.751-6.902"/>
        <path fill="#FF8575" d="M192.754 118.994c-1.16-.875-2.237-1.874-3.526-2.549-1.004-.527-2.106-.84-3.214-1.091-2.797-.638-4.684-.457-6.821 1.6-1.614 1.554-2.668 3.705-2.751 5.944-.019.508.007 1.026-.148 1.512-.183.57-.594 1.032-.953 1.512-1.972 2.643-2.304 6.276-1.185 9.328.498 1.357 1.3 2.893 2.594 3.627 1.04.592 3.742 1.04 4.251 2.283a12.672 12.672 0 0 1-.89-5.982c.05-.527.14-1.069.436-1.507.296-.44.85-.749 1.366-.614.368.096.646.387.949.616.544.41 1.224.64 1.91.647.269.002.55-.034.772-.184.3-.204.432-.574.503-.927.34-1.729-.247-3.7-.812-5.326-.477-1.373-.568-3.168 1.277-3.052 1.659.104 3.355 1.11 5.126 1.207 3.6.195 7.296-.874 10.104-3.142a21.163 21.163 0 0 1-8.988-3.902"/>
        <path fill="#FFFFFE" d="M189.199 156.357l2.83-8.925 1.672.303 1.77 14.331-6.272-5.71"/>
        <path fill="#BDC4FF" d="M181.589 147.432l-8.581 1.62a12.727 12.727 0 0 0-9.376 7.556l-9.586 22.723c-1.357 3.22 1.016 6.777 4.517 6.777l34.28-1.708 1.582-4.838-3.773 1.279-21.457-1.813c-1.753-.147-2.673-2.147-1.641-3.567l14.365-19.768s2.576-7.063-.33-8.26"/>
        <path fill="#AFB0CD" d="M182.58 147.432l-8.638 1.629a12.808 12.808 0 0 0-9.437 7.595l-6.665 14.098c5.21-.542 10.613 4.853 14.326 1.944l10.746-16.962s2.593-7.1-.332-8.304"/>
        <path fill="#FFFFFE" d="M182.21 147.432l6.989 9.12-4.933 6.56-4.475-15.105 2.42-.575"/>
        <path fill="#AFB0CD" d="M215.627 257.188l-2.387 5.842v4.611h29.269v-1.275c0-1.144-.815-2.14-1.967-2.405l-4.715-1.085-9.862-5.688h-1.75l-.794 1.691h-5.091l-.476-1.69h-2.227"/>
        <path fill="#141728" d="M213.24 265.55v2.091h29.269v-1.084a1.81 1.81 0 0 0-.314-1.006H213.24"/>
        <path fill="#AFB0CD" d="M264.46 260.197l3.467 5.6 3.88 2.89 17.74-23.774-1.073-.8a2.595 2.595 0 0 0-3.213.09l-3.772 3.15-10.76 4.445-1.062 1.42.941 1.707-3.086 4.136-1.712-.673-1.35 1.809"/>
        <path fill="#141728" d="M269.686 267.144l2.075 1.542 17.786-23.798-1.076-.8a2.606 2.606 0 0 0-1.188-.489l-17.597 23.545M136.543 268.686l-.654-.124 15.024-75.137.655.125-15.025 75.136M467.638 268.686l-15.025-75.136.653-.125 15.027 75.137-.655.124"/>
        <path fill="#FFFFFE" d="M125.436 194.47h349.128v-7.317H125.436z"/>
        <path fill="#F5F5F6" d="M169.338 187.153h20.906v-3.136h-20.906z"/>
        <path fill="#F5F5F6" d="M226.582 187.108h-43.655l10.7-27.178h43.655l-10.7 27.178"/>
        <path fill="#FFFFFE" d="M212.195 173.043a2.613 2.613 0 1 1-5.227-.002 2.613 2.613 0 0 1 5.227.002"/>
        <path fill="#404BF2" d="M74.216 254.4l8.535 3.833 4.009-8.71-8.535-3.833-4.009 8.71"/>
        <path fill="#141728" d="M117.073 196.742l-9 22.09-21.36 34.175-10.406-4.695 21.442-40.278 2.037-49.104 17.287 37.812"/>
        <path fill="#141728" d="M87.227 252.133l.736.318 3.441 8.183 1.911 2.865 5.988 1.608-.01 2.402-7.062.132-21.742-8.968-.454-2.876 2.996-6.644 1.899-.327 1.48.639 1.917 4.847 6.824 2.855 2.076-5.034"/>
        <path fill="#BDC4FF" d="M70.035 255.712l2.99-6.562 1.9-.324 1.479.633 1.918 4.799 6.826 2.827 2.076-4.984.736.314 3.443 8.103 1.91 2.837 5.99 1.591-.003.605h-5.193l-24.072-9.84"/>
        <path fill="#404BF2" d="M108.71 262.415h8.363v-9.408h-8.362z"/>
        <path fill="#141728" d="M118.61 256.143h.738l5.986 5.59 9.51 3.514v2.394h-27.8l-1.47-2.235v-6.628l1.47-.96h1.483l3.444 3.356 6.803-.08-.164-4.951"/>
        <path fill="#BDC4FF" d="M108.543 257.886l3.464 3.49 6.841-.082-.164-5.151h.741l6.02 5.815 9.398 3.593h-29.268v-6.667l1.478-.998h1.49"/>
        <path fill="#141728" d="M162.95 125.19c-1.218-2.207-2.67-4.29-3.675-6.603-2.249-5.173-2.086-11.034-1.885-16.672l-.758-2.125c-2.352-.767-4.905-.381-7.349.011-.945.153-1.918.314-2.737.81-.983.594-1.635 1.597-2.253 2.565-.812 1.275-1.629 2.56-2.182 3.968-1.41 3.591-.066 7.066-.486 10.696-.442 3.83-1.814 7.77-2.69 11.528-.408 1.748-.818 3.504-.927 5.295-.234 3.79.983 7.624 3.248 10.658 1.007 1.346 2.386 2.425 3.572 3.632 1.027 1.045 2.782.581 3.24-.813 1.068-3.249 3.053-6.505 5.407-7.101-.349-2.308 1.243-4.046 2.343-5.903 1.418-2.396 1.52-4.762 1.61-7.44 2.434.025 5.947 3.102 7.729 4.637.018-2.521-.989-4.937-2.207-7.144"/>
        <path fill="#E9E7E3" d="M98.258 179.836l.677-13.589-.677 13.59"/>
        <path fill="#151727" d="M105.81 220.603v-11.017l-7.26-29.298c-.095-.284-.193-.557-.292-.834l.542-13.207c1.464 1.212 3.134 2.217 4.936 3.007l12.292 27.196-8.816 21.884-1.401 2.269"/>
        <path fill="#141728" d="M97.081 150.568l-3.004 7.53c0 8.767 4.434 13.883 7.236 22.199l7.485 29.579v47.312h10.552l3.995-47.944-.661-47.943-25.603-10.733"/>
        <path fill="#4F5062" d="M142.857 118.164l12.853 18.135c.211.277.441.538.69.78l9.646 8.126 4.529-1.622a3.693 3.693 0 0 1 2.864.158l5.998 4.256-1.83.427-2.46.874.37.777 2.25-.128a1.88 1.88 0 0 1 1.927 1.404l.097.367-4.733.618c-1.899.924-4.064-.406-5.882-.652l-3.418-.25-.86-.29-11.673-7.565a13.07 13.07 0 0 1-3.288-2.647l-9.867-9.706 2.787-13.062"/>
        <path fill="#BDC4FF" d="M137.59 111.892l-3.792 16.854 12.45 11.369c3.76-.796 4.275-12.486 4.275-12.486l-12.934-15.737"/>
        <path fill="#4F5062" d="M151.568 109.716s-6.61 3.423-7.532 6.357l-2.921-11.085 9.223-6.685 1.23 11.413"/>
        <path fill="#404BF2" d="M135.988 102.724l-.053.03a83.521 83.521 0 0 0-26.118 24.184l-16.613 23.81c-2.163 16.61 16.433 24.08 30.291 19.306l5.582-18.748a11.394 11.394 0 0 1 4.893-6.422l3.09-1.925c2.385-1.485 4.352-3.597 5.51-6.163a30.81 30.81 0 0 0 2.328-17.61l-.491-3.028-3.046-15.764-5.373 2.33"/>
        <path fill="#BDC4FF" d="M127.643 156.84l-1.08-5.399a4.138 4.138 0 0 1-.082-.824l1.05-26.522c0-3.298 1.587-5.775 4.938-5.924.096-.006.194-.007.29-.007 3.813 0 6.775 3.348 6.192 7.1l-3.949 18.966-.622.38a12.11 12.11 0 0 0-.732.487c-.02.013-.037.027-.056.04a11.324 11.324 0 0 0-4.17 5.852l-1.78 5.85"/>
        <path fill="#4F5062" d="M127.576 121.49v27.534c0 .29.028.579.087.863l5.074 24.61a5.368 5.368 0 0 1-.381 3.324l-2.776 6.052-2.054 2.218 11.75.017 1.504-7.818-5.38-29.56 5.636-26.263c.645-4.03-2.732-7.617-6.999-7.432-3.615.157-6.461 3.001-6.461 6.455"/>
        <path fill="#BDC4FF" d="M133.245 113.991c-3.424.154-6.168 1.573-6.168 4.992l-1.641 19.487s11.021 5.167 13.04 1.18l2.582-19.119c.611-3.988-3.77-6.724-7.813-6.54"/>
        <path fill="#4F5062" d="M139.667 176.7l4.584 10.436-3.1.017-3.172-5.795 1.688-4.658M150.461 95.344c2.827-2.282 10.039-3.597 12.702-.205 2.943 3.75-1.704 10.62-3.881 13.602-.904 1.24-1.962 2.488-3.423 2.957-1.917.62-4.074-.315-5.415-1.818-1.343-1.503-2.02-3.472-2.556-5.413-.22-.8-.423-1.61-.484-2.438-.182-2.54 1.072-5.085 3.057-6.685"/>
        <path fill="#141728" d="M153.906 99.573c-1.775 1.187-2.164 3.663-3.647 5.198-1.507 1.562-3.87 1.895-6.042 1.895-2 0-4.113-.249-5.715-1.443-1.487-1.11-2.341-2.929-2.554-4.77-.212-1.843.165-3.71.775-5.462a20.908 20.908 0 0 1 4.43-7.344c.986-1.06 2.12-2.037 3.484-2.526 1.685-.607 3.539-.41 5.318-.204 3.097.357 6.259.73 9.074 2.072 1.254.598 3.022 1.618 3.914 2.676l1.69 2.003c.252.3.506.6.728.924.48.702.81 1.522.84 2.372.027.85-.272 1.726-.89 2.31-.472.445-1.093.7-1.72.868-1.409.38-3.159.571-4.623.66-1.723.105-3.529-.257-5.062.77M7.317 269.485h279.094v-.799H7.317zM0 269.485h5.226v-.799H0zM592.683 269.485H600v-.799h-7.317zM325.087 269.485h263.415v-.799H325.087zM313.589 269.485h7.317v-.799h-7.317z"/>
    </g>
</svg>
